<svg width="36" height="36" viewBox="0 0 36 36" fill="none" xmlns="http://www.w3.org/2000/svg">
    <rect width="36" height="36" rx="18" fill="#BE1510" fill-opacity="0.1"/>
    <path d="M18.713 22.713C18.9043 22.521 19 22.2833 19 22C19 21.7167 18.904 21.4793 18.712 21.288C18.52 21.0967 18.2827 21.0007 18 21C17.7173 20.9993 17.48 21.0953 17.288 21.288C17.096 21.4807 17 21.718 17 22C17 22.282 17.096 22.5197 17.288 22.713C17.48 22.9063 17.7173 23.002 18 23C18.2827 22.998 18.5203 22.903 18.713 22.713ZM18.713 18.712C18.9043 18.5207 19 18.2833 19 18V14C19 13.7167 18.904 13.4793 18.712 13.288C18.52 13.0967 18.2827 13.0007 18 13C17.7173 12.9993 17.48 13.0953 17.288 13.288C17.096 13.4807 17 13.718 17 14V18C17 18.2833 17.096 18.521 17.288 18.713C17.48 18.905 17.7173 19.0007 18 19C18.2827 18.9993 18.5203 18.9033 18.713 18.712ZM18 28C16.6167 28 15.3167 27.7373 14.1 27.212C12.8833 26.6867 11.825 25.9743 10.925 25.075C10.025 24.1757 9.31267 23.1173 8.788 21.9C8.26333 20.6827 8.00067 19.3827 8 18C7.99933 16.6173 8.262 15.3173 8.788 14.1C9.314 12.8827 10.0263 11.8243 10.925 10.925C11.8237 10.0257 12.882 9.31333 14.1 8.788C15.318 8.26267 16.618 8 18 8C19.382 8 20.682 8.26267 21.9 8.788C23.118 9.31333 24.1763 10.0257 25.075 10.925C25.9737 11.8243 26.6863 12.8827 27.213 14.1C27.7397 15.3173 28.002 16.6173 28 18C27.998 19.3827 27.7353 20.6827 27.212 21.9C26.6887 23.1173 25.9763 24.1757 25.075 25.075C24.1737 25.9743 23.1153 26.687 21.9 27.213C20.6847 27.739 19.3847 28.0013 18 28Z" fill="#BE1510"/>
</svg>
